<svg width="199" height="47" viewBox="0 0 199 47" fill="none" xmlns="http://www.w3.org/2000/svg">
<path d="M14.92 46.64C12.7013 46.64 10.9307 45.9573 9.608 44.592C8.28533 43.184 7.34667 41.008 6.792 38.064L0.264 4.4C0.178667 3.888 0.136 3.54666 0.136 3.376C0.136 2.48 0.413333 1.79733 0.968 1.328C1.56533 0.815998 2.39733 0.559998 3.464 0.559998C4.616 0.559998 5.49067 0.815998 6.088 1.328C6.728 1.79733 7.15467 2.544 7.368 3.568L13.704 38.576C13.8747 39.4293 14.0453 40.0267 14.216 40.368C14.4293 40.6667 14.728 40.816 15.112 40.816C15.88 40.816 16.3493 40.0907 16.52 38.64L20.872 7.216C21.1707 5.12533 21.9173 3.504 23.112 2.352C24.3493 1.15733 25.9067 0.559998 27.784 0.559998C29.704 0.559998 31.2613 1.15733 32.456 2.352C33.6507 3.504 34.3973 5.12533 34.696 7.216L39.112 38.64C39.1973 39.408 39.3467 39.9627 39.56 40.304C39.7733 40.6453 40.0933 40.816 40.52 40.816C40.8613 40.816 41.1173 40.6667 41.288 40.368C41.5013 40.0267 41.7147 39.4293 41.928 38.576L48.2 3.568C48.4133 2.544 48.8187 1.79733 49.416 1.328C50.056 0.815998 50.952 0.559998 52.104 0.559998C53.1707 0.559998 54.0027 0.815998 54.6 1.328C55.1973 1.79733 55.496 2.48 55.496 3.376C55.496 3.54666 55.4533 3.888 55.368 4.4L48.776 38.064C48.2213 40.9653 47.2827 43.12 45.96 44.528C44.68 45.936 42.9307 46.64 40.712 46.64C38.4933 46.64 36.7653 45.9573 35.528 44.592C34.2907 43.2267 33.48 41.1147 33.096 38.256L28.872 8.368C28.7867 7.64267 28.6587 7.13066 28.488 6.832C28.3173 6.53333 28.0827 6.384 27.784 6.384C27.4853 6.384 27.2507 6.53333 27.08 6.832C26.9093 7.13066 26.7813 7.64267 26.696 8.368L22.536 38.256C22.1093 41.1147 21.2773 43.2267 20.04 44.592C18.8453 45.9573 17.1387 46.64 14.92 46.64ZM76.0395 46.64C72.3702 46.64 69.1702 46 66.4395 44.72C63.7515 43.3973 61.6822 41.52 60.2315 39.088C58.8235 36.656 58.1195 33.776 58.1195 30.448C58.1195 25.2853 59.6555 21.2533 62.7275 18.352C65.7995 15.4507 70.0662 14 75.5275 14C78.8982 14 81.8848 14.5333 84.4875 15.6C87.0902 16.6667 89.1168 18.16 90.5675 20.08C92.0182 21.9573 92.7435 24.112 92.7435 26.544C92.7435 28.5067 92.1462 30.0213 90.9515 31.088C89.7568 32.1547 88.0715 32.688 85.8955 32.688H65.1595C65.1595 35.3333 66.0982 37.3813 67.9755 38.832C69.8528 40.2827 72.5408 41.008 76.0395 41.008C78.0448 41.008 79.8155 40.7947 81.3515 40.368C82.8875 39.9413 84.3168 39.2587 85.6395 38.32C86.8768 37.5093 87.8155 37.104 88.4555 37.104C89.0102 37.104 89.5862 37.4027 90.1835 38C90.8662 38.64 91.2075 39.344 91.2075 40.112C91.2075 40.9227 90.8448 41.6053 90.1195 42.16C86.5355 45.1467 81.8422 46.64 76.0395 46.64ZM83.7195 27.504C84.4448 27.504 84.9782 27.3547 85.3195 27.056C85.6608 26.7573 85.8315 26.2453 85.8315 25.52C85.8315 23.7707 84.8928 22.3627 83.0155 21.296C81.1382 20.1867 78.6422 19.632 75.5275 19.632C72.3702 19.632 69.8742 20.3573 68.0395 21.808C66.2048 23.216 65.2875 25.1147 65.2875 27.504H83.7195ZM108.946 46C105.917 46 103.549 45.2107 101.842 43.632C100.178 42.0107 99.346 39.7707 99.346 36.912V10.096C99.346 7.32266 100.157 5.14666 101.778 3.568C103.399 1.98933 105.661 1.2 108.562 1.2H128.466C129.575 1.2 130.429 1.456 131.026 1.968C131.623 2.43733 131.922 3.14133 131.922 4.08C131.922 4.976 131.623 5.68 131.026 6.192C130.429 6.66133 129.575 6.896 128.466 6.896H109.586C108.647 6.896 107.922 7.19467 107.41 7.792C106.898 8.38933 106.642 9.2 106.642 10.224V20.272H123.602C124.711 20.272 125.565 20.528 126.162 21.04C126.759 21.5093 127.058 22.2133 127.058 23.152C127.058 24.048 126.759 24.752 126.162 25.264C125.565 25.7333 124.711 25.968 123.602 25.968H106.642V36.976C106.642 38 106.898 38.8107 107.41 39.408C107.922 40.0053 108.647 40.304 109.586 40.304H129.874C130.983 40.304 131.837 40.56 132.434 41.072C133.031 41.5413 133.33 42.2453 133.33 43.184C133.33 44.08 133.031 44.784 132.434 45.296C131.837 45.7653 130.983 46 129.874 46H108.946ZM149.435 46.64C145.381 46.64 142.139 45.68 139.707 43.76C137.275 41.84 136.059 39.28 136.059 36.08C136.059 32.9227 137.339 30.4053 139.899 28.528C142.501 26.6507 146 25.712 150.395 25.712C154.661 25.712 157.989 26.6933 160.379 28.656V26.224C160.379 24.0907 159.696 22.4693 158.331 21.36C157.008 20.208 155.045 19.632 152.443 19.632C148.773 19.632 145.616 20.4427 142.97 22.064C142.075 22.576 141.264 22.832 140.539 22.832C139.771 22.832 139.067 22.4907 138.427 21.808C138 21.3387 137.786 20.784 137.786 20.144C137.786 19.12 138.235 18.3093 139.131 17.712C140.667 16.56 142.608 15.664 144.955 15.024C147.301 14.3413 149.755 14 152.315 14C157.136 14 160.912 15.088 163.643 17.264C166.373 19.44 167.739 22.448 167.739 26.288V43.44C167.739 44.4213 167.419 45.2107 166.779 45.808C166.139 46.3627 165.264 46.64 164.155 46.64C163.045 46.64 162.171 46.3627 161.531 45.808C160.933 45.2533 160.635 44.4853 160.635 43.504V42.288C158.117 45.1893 154.384 46.64 149.435 46.64ZM150.971 41.392C153.872 41.392 156.176 40.9227 157.883 39.984C159.589 39.0027 160.443 37.68 160.443 36.016C160.443 34.3947 159.611 33.1147 157.947 32.176C156.283 31.2373 154 30.768 151.099 30.768C148.581 30.768 146.619 31.2373 145.211 32.176C143.845 33.1147 143.163 34.416 143.163 36.08C143.163 37.7867 143.824 39.1093 145.147 40.048C146.512 40.944 148.453 41.392 150.971 41.392ZM197.593 38.384C198.233 38.896 198.553 39.4933 198.553 40.176C198.553 40.9013 198.276 41.6267 197.721 42.352C196.825 43.6747 195.545 44.72 193.881 45.488C192.217 46.256 190.382 46.64 188.377 46.64C185.177 46.64 182.66 45.744 180.825 43.952C178.99 42.16 178.073 39.7067 178.073 36.592V20.336H175.193C174.041 20.336 173.124 20.08 172.441 19.568C171.801 19.056 171.481 18.3733 171.481 17.52C171.481 16.624 171.801 15.92 172.441 15.408C173.124 14.896 174.041 14.64 175.193 14.64H178.073V4.528C178.073 3.46133 178.393 2.62933 179.033 2.032C179.673 1.43466 180.548 1.136 181.657 1.136C182.766 1.136 183.641 1.43466 184.281 2.032C184.921 2.62933 185.241 3.46133 185.241 4.528V14.64H192.217C193.326 14.64 194.201 14.896 194.841 15.408C195.524 15.92 195.865 16.624 195.865 17.52C195.865 18.3733 195.545 19.056 194.905 19.568C194.265 20.08 193.369 20.336 192.217 20.336H185.241V37.168C185.241 38.32 185.561 39.2373 186.201 39.92C186.841 40.56 187.737 40.88 188.889 40.88C190.468 40.88 191.876 40.2613 193.113 39.024C194.094 38.128 194.99 37.68 195.801 37.68C196.484 37.68 197.081 37.9147 197.593 38.384Z" fill="white"/>
</svg>
